<?xml version="1.0" standalone="no"?><!DOCTYPE svg PUBLIC "-//W3C//DTD SVG 1.1//EN" "http://www.w3.org/Graphics/SVG/1.1/DTD/svg11.dtd"><svg t="1562661043210" class="icon" viewBox="0 0 1024 1024" version="1.1" xmlns="http://www.w3.org/2000/svg" p-id="1762" xmlns:xlink="http://www.w3.org/1999/xlink" width="200" height="200"><defs><style type="text/css"></style></defs><path d="M66.432 876.352A31.744 31.744 0 0 1 64 862.528V160a32 32 0 0 1 32-32h256a32 32 0 0 1 22.656 9.344L429.248 192H800a32 32 0 0 1 32 32V384h160a32 32 0 0 1 29.44 44.608l-192 448a32 32 0 0 1-29.44 19.392h-704a32 32 0 0 1-29.568-19.648zM128 708.096l130.56-304.704A32 32 0 0 1 288 384H768V256H416a32 32 0 0 1-22.656-9.344L338.752 192H128v516.096zM309.12 448l-164.608 384h634.368l164.608-384H309.12z" p-id="1763"></path></svg>